#!OML:ASF F:\VICON\USERDATA\INSTALL\rory3\rory3.ASF
:FULLY-SPECIFIED
:DEGREES
1
root 0.4106949308167173 18.049291556412484 -29.325883051337087 -3.454774358201903 -0.9963814107935631 -0.7637816296228315
lfemur -12.478696904518777 0.003235280595488277 -23.031993991353332
ltibia 22.999205473196767
lfoot -4.779722383529743 -3.8768184327503343
ltoes -28.359275917204407
rfemur -13.587200232194176 -1.3730591691545158 22.791406541667644
rtibia 71.87848208805363
rfoot 4.3704455592285685 -6.678694604475102
rtoes 2.5044797396899274
lowerback 12.601282029197833 1.0060646400904125 -0.43838089312022466
upperback 0.7028414224361079 1.3257564622954452 0.7980878822278423
thorax -6.3613651867882615 0.6727128875689075 0.8514609977136592
lowerneck -16.814295613874318 -3.482487949209587 -1.8858115181216673
upperneck 21.46949864440061 -4.571050064068189 0.923351522788139
head 9.637297190230134 -2.1713781880029406 0.03220652245224806
lclavicle -1.355135744100365e-15 7.266333454534221e-16
lhumerus -32.44989633797426 9.248400811157959 80.3469023509454
lradius 21.328208505225536
lwrist 5.3197658810643595
lhand -25.309221724185115 20.92739712599033
lfingers 7.125019999999999
lthumb 1.2129282744975747 50.90369708672528
rclavicle -1.355135744100365e-15 7.266333454534221e-16
rhumerus -25.990407360932647 -20.08580009414686 -79.56719343241753
rradius 25.46760581868517
rwrist 5.997784242628958
rhand -18.41379654251834 23.15189686756021
rfingers 7.125019999999999
rthumb 7.871013456342792 -6.681583059531576
2
root 0.4608543706928533 18.063990672271693 -28.541983386608926 -3.8810113607590946 -0.4756682883793579 -0.7096757846020938
lfemur -9.57444882370118 -0.2969212960370138 -23.43969334037665
ltibia 23.779905021166414
lfoot -7.147459798494011 -2.2298010980328504
ltoes -27.352177091671674
rfemur -19.251296174755304 -2.3192562153423726 22.854306438791912
rtibia 74.40008074745182
rfoot -0.9430051941953614 -8.865448637148114
rtoes -3.192322880876736
lowerback 12.85537914988331 0.6566409509891914 -0.7428531191895296
upperback 0.3661541410106957 0.825878529312653 0.8944026348374877
thorax -6.857684484457324 0.4422050304482995 1.2119706309896041
lowerneck -14.717421119717589 -3.2102744522684676 -1.903081200622163
upperneck 21.437399076428864 -4.233434465270846 0.9468862854420995
head 9.232360955155663 -2.029303405930708 0.12408742518232938
lclavicle -1.3551357474115424e-15 7.266333363660416e-16
lhumerus -31.307998314445125 8.116582741236458 80.01120380215781
lradius 21.560008053020244
lwrist 5.321445876423613
lhand -25.260021982169565 19.858499231771855
lfingers 7.125019999999999
lthumb 1.2604180166437366 49.834499189051364
rclavicle -1.3551357474115424e-15 7.266333363660416e-16
rhumerus -29.25610217795528 -22.45369597516141 -77.90479748565065
rradius 24.54650775962236
rwrist 6.144313862338056
rhand -14.80252424569307 14.905829375548578
rfingers 7.125019999999999
rthumb 11.35527575824723 -14.766671095467705
3
root 0.5069859358491675 18.03099265707755 -27.753483723848078 -3.7585722217925435 1.3291042039774716 -0.1225634663101638
lfemur -7.202080391407393 -1.0015951422299056 -24.44219173967975
ltibia 24.483904613545857
lfoot -9.947166741844885 -1.466332333514654
ltoes -24.310780638513876
rfemur -24.468892437163646 -3.883501332124599 22.3329072915646
rtibia 73.01708148272013
rfoot -5.1443932549776274 -7.263613008319648
rtoes 1.684070802418172
lowerback 12.9379782139078 -0.07399611697348762 -1.6609437855167408
upperback 0.45463484978764757 -0.26262096969410836 1.1474983569475035
thorax -6.7736862957437625 -0.05643823399441966 2.20171687877363
lowerneck -15.917106527052143 -3.0001294725381893 -2.3929621942624513
upperneck 22.221988516635435 -3.7888102614521655 0.8964707938779533
head 9.734583883180857 -1.8580096969711533 0.21910363587182718
lclavicle -1.3551357792840643e-15 7.266333391621446e-16
lhumerus -28.950402395124442 6.7528950667199705 80.76690053530878
lradius 22.689305849933728
lwrist 6.795791803753211
lhand -25.478020839067693 21.578095844081794
lfingers 7.125019999999999
lthumb 1.0499191595839954 51.555295805509715
rclavicle -1.3551357792840643e-15 7.266333391621446e-16
rhumerus -30.635399988874635 -22.89649520490643 -77.00839967123666
rradius 24.731407370002035
rwrist 7.930839225737317
rhand -16.593710504955226 26.65188306976983
rfingers 7.125019999999999
rthumb 9.62736949421447 -3.1081571869241698
4
root 0.541025877094828 17.9620968011116 -26.97478405689597 -3.5458037180526474 2.1593312103474536 0.0758396653894664
lfemur -5.330541628155826 -1.154774456667342 -24.886791029784668
ltibia 25.86780381225879
lfoot -12.568893879509616 -0.6454386619241985
ltoes -21.448883976025424
rfemur -28.585889487979145 -4.0293608767842555 22.380107214366916
rtibia 67.5602843838132
rfoot -9.354348305688406 -7.0652035497495955
rtoes -2.4842237981228292
lowerback 13.158175718728508 -0.4635536406512941 -1.9061931621231907
upperback 0.37373194478217303 -0.8167536783310192 1.1871078439576372
thorax -6.951642458404063 -0.31485293168355194 2.4902757848211725
lowerneck -16.190703199092432 -2.909931627324431 -2.0025693715529274
upperneck 21.94229228106855 -3.6311823163114 0.3888789128979899
head 9.66526623948321 -1.8098914641916224 -0.003132810120866858
lclavicle -1.355135736515019e-15 7.266333050494008e-16
lhumerus -27.22120538813033 3.9503498458734545 81.17719876160471
lradius 24.86430160685114
lwrist 8.649196683986503
lhand -26.254516767422686 20.912997154358987
lfingers 7.125019999999999
lthumb 0.29988623201854603 50.892597108550774
rclavicle -1.355135736515019e-15 7.266333050494008e-16
rhumerus -32.25849741286013 -22.398196071704206 -76.89089995772301
rradius 24.269908342472462
rwrist 5.206866295312235
rhand -15.172121410400123 16.661122455759603
rfingers 7.125019999999999
rthumb 10.998778592216587 -13.030777958250022
